<svg width="28" height="14" viewBox="0 0 28 14" fill="none" xmlns="http://www.w3.org/2000/svg">
<path d="M0.637607 6.95384V5.95455C1.211 5.95455 1.60872 5.8402 1.83079 5.61151C2.05285 5.38281 2.16389 5.01326 2.16389 4.50284V3.40412C2.16389 2.79096 2.2484 2.30043 2.41744 1.93253C2.58978 1.56132 2.82842 1.28125 3.13335 1.09233C3.44158 0.903409 3.80617 0.777462 4.2271 0.714488C4.64802 0.651515 5.10872 0.620028 5.6092 0.620028V2.20099C5.2181 2.20099 4.9198 2.25237 4.71431 2.35511C4.51213 2.45455 4.37459 2.61032 4.30167 2.82244C4.22875 3.03125 4.19229 3.2964 4.19229 3.6179V5.0696C4.19229 5.3215 4.14589 5.56179 4.05309 5.79048C3.96029 6.01586 3.78794 6.21638 3.53604 6.39205C3.28415 6.56439 2.92454 6.70194 2.45721 6.80469C1.98988 6.90412 1.38335 6.95384 0.637607 6.95384ZM5.6092 13.2031C5.10872 13.2031 4.64802 13.1716 4.2271 13.1087C3.80617 13.0457 3.44158 12.9197 3.13335 12.7308C2.82842 12.5419 2.58978 12.2635 2.41744 11.8956C2.2484 11.5244 2.16389 11.0322 2.16389 10.419V9.31534C2.16389 8.80492 2.05285 8.43537 1.83079 8.20668C1.60872 7.97798 1.211 7.86364 0.637607 7.86364V6.86435C1.38335 6.86435 1.98988 6.91572 2.45721 7.01847C2.92454 7.1179 3.28415 7.25544 3.53604 7.43111C3.78794 7.60346 3.96029 7.80398 4.05309 8.03267C4.14589 8.25805 4.19229 8.49834 4.19229 8.75355V10.2053C4.19229 10.5234 4.22875 10.7886 4.30167 11.0007C4.37459 11.2095 4.51213 11.3653 4.71431 11.468C4.9198 11.5675 5.2181 11.6172 5.6092 11.6172V13.2031ZM0.637607 7.86364V5.95455H2.42241V7.86364H0.637607ZM10.0588 12V1.81818H12.2115V6.30753H12.3457L16.0098 1.81818H18.59L14.8116 6.37713L18.6348 12H16.0595L13.2704 7.81392L12.2115 9.10653V12H10.0588ZM27.3612 6.86435V7.86364C26.7911 7.86364 26.3933 7.97798 26.168 8.20668C25.9459 8.43537 25.8349 8.80492 25.8349 9.31534V10.419C25.8349 11.0322 25.7487 11.5244 25.5763 11.8956C25.4073 12.2635 25.1687 12.5419 24.8604 12.7308C24.5555 12.9197 24.1926 13.0457 23.7717 13.1087C23.354 13.1716 22.8933 13.2031 22.3896 13.2031V11.6172C22.7807 11.6172 23.0773 11.5675 23.2795 11.468C23.485 11.3653 23.6242 11.2095 23.6971 11.0007C23.77 10.7886 23.8065 10.5234 23.8065 10.2053V8.75355C23.8065 8.49834 23.8529 8.25805 23.9457 8.03267C24.0385 7.80398 24.2108 7.60346 24.4627 7.43111C24.7146 7.25544 25.0742 7.1179 25.5415 7.01847C26.0089 6.91572 26.6154 6.86435 27.3612 6.86435ZM22.3896 0.620028C22.8933 0.620028 23.354 0.651515 23.7717 0.714488C24.1926 0.777462 24.5555 0.903409 24.8604 1.09233C25.1687 1.28125 25.4073 1.56132 25.5763 1.93253C25.7487 2.30043 25.8349 2.79096 25.8349 3.40412V4.50284C25.8349 5.01326 25.9459 5.38281 26.168 5.61151C26.3933 5.8402 26.7911 5.95455 27.3612 5.95455V6.95384C26.6154 6.95384 26.0089 6.90412 25.5415 6.80469C25.0742 6.70194 24.7146 6.56439 24.4627 6.39205C24.2108 6.21638 24.0385 6.01586 23.9457 5.79048C23.8529 5.56179 23.8065 5.3215 23.8065 5.0696V3.6179C23.8065 3.2964 23.77 3.03125 23.6971 2.82244C23.6242 2.61032 23.485 2.45455 23.2795 2.35511C23.0773 2.25237 22.7807 2.20099 22.3896 2.20099V0.620028ZM27.3612 5.95455V7.86364H25.5763V5.95455H27.3612Z" fill="white"/>
</svg>
